<?xml version="1.0" standalone="yes"?>
<svg xmlns="http://www.w3.org/2000/svg" width="1600" height="750">
<path style="fill:#010101; stroke:none;" d="M0 0L0 750L1600 750L1600 0L0 0z"/>
<path style="fill:#ffffff; stroke:none;" d="M397 160.439C391.023 161.38 385.297 163.396 380 166.313C361.045 176.754 356.133 202.307 370.518 218.83C381.571 231.527 399.539 237.366 416 234.675C441.971 230.43 466.677 198.039 446.671 174.004C435.381 160.442 413.503 157.841 397 160.439M333 278L333 298C342.56 300.265 351.923 304.865 361 308.604C365.519 310.465 371.051 312.764 373.721 317.104C379.08 325.813 376 342.127 376 352L376 438L376 461C375.993 465.636 376.094 470.934 373.272 474.895C370.119 479.321 363.922 481.312 359 482.997C350.35 485.958 341.82 489.592 333 492L333 511L489 511L489 492C479.785 489.867 470.91 485.81 462 482.656C457.435 481.04 451.605 479.072 448.742 474.895C445.693 470.445 447 463.121 447 458L447 420L447 272C408.929 272 371.066 278 333 278z"/>
</svg>
