<?xml version="1.0" standalone="yes"?>
<svg xmlns="http://www.w3.org/2000/svg" width="1600" height="750">
<path style="fill:#010101; stroke:none;" d="M0 0L0 750L1600 750L1600 0L0 0z"/>
<path style="fill:#ffffff; stroke:none;" d="M397 160.439C391.023 161.38 385.297 163.396 380 166.313C361.045 176.754 356.133 202.307 370.518 218.83C381.571 231.527 399.539 237.366 416 234.675C441.971 230.43 466.677 198.039 446.671 174.004C435.381 160.442 413.503 157.841 397 160.439M750 275L750 305L789 305L789 434C789 452.999 785.584 475.409 798.758 490.985C806.831 500.532 818.325 506.156 830 509.999C856.712 518.791 886.69 516.097 913 507.333C920.83 504.725 928.533 501.747 936 498.219C938.896 496.851 943.17 495.434 944.972 492.61C948.115 487.683 946 476.713 946 471C921.964 471.016 899.06 479.74 877 465.452C858.346 453.37 860 435.652 860 416L860 305L944 305C944.001 292.992 945.486 280.982 946 269L860 269L860 198C844.421 198.129 828.407 202.051 813 204.271C809.086 204.835 799.668 204.473 797.028 207.742C795.415 209.739 795.894 213.582 795.576 216C794.488 224.256 794.637 232.696 793.83 241C793.406 245.365 792.844 249.943 791.12 254C784.263 270.144 765.87 273.746 750 275M734 449C719.484 449 709.165 458.421 696 463.691C672.829 472.965 644.551 473.098 623 459.535C586.187 436.369 586.615 380.461 595.12 343C598.312 328.937 603.824 307.704 619 302.133C629.753 298.187 643.111 303.205 653 307.421C665.266 312.651 676.732 318.917 688 326.053C694.212 329.988 700.878 336.439 708 338.49C712.893 339.899 718.942 339 724 339C724 325.777 724.186 312.195 725.089 299C725.433 293.986 727.901 285.982 724.972 281.39C722.104 276.895 713.697 274.873 709 273C691.637 266.076 673.621 263 655 263C630.594 263 606.503 268.227 585 280.17C544.266 302.794 517.079 346.094 517.079 393C517.079 424.839 526.434 459.583 549.09 482.961C558.815 492.995 570.523 500.497 583 506.627C590.95 510.532 600.312 512.836 609 514.385C642.793 520.41 676.297 513.336 706 496.861C712.618 493.19 718.773 489.29 725 484.975C727.62 483.16 731.235 481.248 732.972 478.485C734.62 475.864 734 471.948 734 469L734 449M333 278L333 298C342.56 300.265 351.923 304.865 361 308.604C365.519 310.465 371.051 312.764 373.721 317.104C379.08 325.813 376 342.127 376 352L376 438L376 461C375.993 465.636 376.094 470.934 373.272 474.895C370.119 479.321 363.922 481.312 359 482.997C350.35 485.958 341.82 489.592 333 492L333 511L489 511L489 492C479.785 489.867 470.91 485.81 462 482.656C457.435 481.04 451.605 479.072 448.742 474.895C445.693 470.445 447 463.121 447 458L447 420L447 272C408.929 272 371.066 278 333 278z"/>
</svg>
