<?xml version="1.0" standalone="yes"?>
<svg xmlns="http://www.w3.org/2000/svg" width="1500" height="750">
<path style="fill:#010101; stroke:none;" d="M0 0L0 750L1500 750L1500 0L0 0z"/>
<path style="fill:#fefefe; stroke:none;" d="M359 80.439C353.023 81.3799 347.297 83.3959 342 86.3133C323.045 96.7537 318.133 122.307 332.518 138.83C343.571 151.527 361.539 157.366 378 154.675C403.971 150.43 428.677 118.039 408.671 94.0038C397.381 80.4418 375.503 77.8413 359 80.439M712 195L712 225L751 225L751 354C751 372.999 747.584 395.409 760.758 410.985C768.831 420.532 780.325 426.156 792 429.999C818.712 438.791 848.69 436.097 875 427.333C882.829 424.726 890.533 421.747 898 418.219C900.896 416.851 905.17 415.434 906.972 412.61C910.115 407.683 908 396.713 908 391C883.964 391.016 861.06 399.74 839 385.452C820.346 373.37 822 355.652 822 336L822 225L906 225C906.001 212.992 907.486 200.982 908 189L822 189L822 118C806.421 118.129 790.407 122.051 775 124.271C771.086 124.835 761.668 124.473 759.028 127.742C757.415 129.739 757.894 133.582 757.576 136C756.488 144.256 756.637 152.695 755.83 161C755.406 165.365 754.844 169.943 753.12 174C746.263 190.144 727.871 193.746 712 195M696 369C681.485 369 671.164 378.421 658 383.691C634.829 392.965 606.551 393.098 585 379.535C548.187 356.369 548.615 300.461 557.12 263C560.312 248.937 565.824 227.704 581 222.133C591.753 218.187 605.111 223.205 615 227.421C627.266 232.651 638.732 238.917 650 246.053C656.212 249.988 662.878 256.439 670 258.49C674.893 259.899 680.942 259 686 259C686 245.777 686.186 232.195 687.089 219C687.433 213.986 689.901 205.982 686.972 201.39C684.104 196.895 675.697 194.873 671 193C653.637 186.076 635.621 183 617 183C592.594 183 568.503 188.227 547 200.17C506.266 222.794 479.079 266.094 479.079 313C479.079 344.839 488.434 379.583 511.09 402.961C520.815 412.995 532.523 420.497 545 426.627C552.95 430.532 562.312 432.836 571 434.385C604.793 440.41 638.297 433.336 668 416.861C674.618 413.19 680.773 409.29 687 404.975C689.62 403.16 693.235 401.248 694.972 398.485C696.62 395.864 696 391.948 696 389L696 369M988 332C985.51 336.628 980.725 337.387 976 339.003C971.063 340.691 966.341 342.83 962 345.749C940.855 359.967 932.003 390.391 952.043 409.907C957.266 414.993 964.402 419.59 971 422.677C975.735 424.892 981.346 425.14 984 430C967.633 433.378 949.902 438.488 938.093 451.015C925.475 464.4 922.688 487.159 932.468 503C938.65 513.013 948.754 520.292 959 525.68C975.64 534.431 994.589 537.883 1013 540.282C1057 546.013 1102.25 540.772 1142 520.752C1176.41 503.421 1200.39 461.794 1183.21 424C1162.93 379.405 1108.26 382 1067 382L1040 382C1030.92 382 1019.81 383.721 1011 381.387C1000.81 378.687 993.523 369.599 996.294 359C997.706 353.601 1001.8 346.107 1007.58 344.402C1012.3 343.009 1020.08 346.396 1025 346.95C1038.49 348.47 1053.46 349.312 1067 347.715C1107 342.995 1153.65 326.955 1160.27 281C1161.35 273.481 1161.73 265.567 1160.82 258C1159.84 249.935 1156.42 241.775 1152.06 235C1149.41 230.891 1146 227.484 1144 223C1157.73 223 1171.32 224.65 1185 224.985C1188.43 225.069 1196.57 226.435 1198.97 223.397C1200.77 221.125 1200 216.693 1200 214C1200 205.613 1200.93 197.34 1201 189L1142 189C1131.78 189 1121.17 189.815 1111 188.83C1097.94 187.567 1085.09 184.415 1072 183.17C1044.51 180.554 1012.57 183.541 988 196.9C952.007 216.473 929.745 261.788 951.876 300C955.777 306.737 961.203 313.267 967.039 318.41C973.147 323.792 980.312 329.185 988 332M295 198L295 218C304.56 220.266 313.923 224.865 323 228.604C327.519 230.465 333.051 232.764 335.721 237.104C341.08 245.813 338 262.127 338 272L338 358L338 381C337.993 385.636 338.094 390.934 335.272 394.895C332.119 399.321 325.922 401.312 321 402.997C312.35 405.958 303.82 409.592 295 412L295 431L451 431L451 412C441.785 409.867 432.91 405.81 424 402.656C419.435 401.04 413.605 399.072 410.742 394.895C407.693 390.445 409 383.121 409 378L409 340L409 192C370.929 192 333.066 198 295 198z"/>
<path style="fill:#010101; stroke:none;" d="M1044 211.519C1028.84 214.807 1021.25 229.998 1018.75 244C1015.52 262.071 1015.42 282.631 1022.06 300C1026.89 312.597 1035.92 321.926 1050 321.999C1053.64 322.018 1057.42 322.248 1061 321.482C1075.74 318.333 1083.99 304.822 1086.99 291C1088.11 285.803 1088.93 280.318 1089 275C1089.28 251.256 1087.75 211.446 1055 211.004C1051.37 210.955 1047.57 210.745 1044 211.519M1009.19 436.028C1005.09 438.368 1002.45 444.815 1000.76 449C994.503 464.439 996.809 484.527 1010 495.674C1025.22 508.533 1044.86 511 1064 511C1077.25 511 1091.46 509.068 1103 502.073C1122.93 489.997 1134.15 457.569 1111 442.248C1103.53 437.308 1095.57 436.65 1087 435.83C1069.8 434.187 1052.29 435 1035 435L1018 435C1015.17 435.001 1011.75 434.565 1009.19 436.028z"/>
<path style="fill:#fefefe; stroke:none;" d="M567.001 561.533C553.035 564.923 560.283 583.352 573 580.602C579.26 579.248 585.874 571.472 581.257 565.225C578.205 561.094 571.645 560.406 567.001 561.533M962.001 561.533C948.035 564.923 955.283 583.352 968 580.602C974.26 579.248 980.874 571.472 976.257 565.225C973.205 561.094 966.645 560.406 962.001 561.533M652 563C652.553 570.162 660.036 570.528 661.682 577.004C663.37 583.643 662 592.165 662 599C662 612.171 663.103 625.879 661.941 638.995C661.294 646.302 652.59 645.574 652 653L688 653C687.534 646.963 682.667 646.72 680.603 641.815C679.396 638.945 680 635.043 680 632C680 624.67 678.013 613.909 680.603 607.005C683.954 598.074 697.347 597.886 701.543 606.015C705.538 613.754 703.058 627.457 702.999 636C702.984 638.249 703.156 640.769 701.972 642.787C699.385 647.199 695.447 647.209 695 653L731 653C730.469 646.32 723.153 646.254 722.148 639.985C720.19 627.771 724.815 613.947 721.362 602C717.725 589.416 702.355 584.995 691 589.613C686.633 591.39 683.309 594.762 680 598L680 562L652 563M819 563C819.587 570.611 828.287 570.591 828.941 578.004C830.417 594.725 829 612.209 829 629C829 633.937 827.053 644.196 830.028 648.351C832.883 652.34 841.536 653.132 846 653.916C863.197 656.936 882.08 653.355 890.204 636C898.834 617.563 892.334 588 868 588.029C864.893 588.033 861.883 588.592 859 589.765C854.603 591.553 851.338 594.734 848 598L848 562L819 563M608 573C607.994 582.056 606.74 590.412 596 591L596 599L606 599L606 632C606 637.518 605.335 643.452 609.279 647.892C616.162 655.643 629.078 654.807 638 651.971C643.838 650.116 647.783 648.541 648 642C642.763 642.225 637.044 644.116 632.004 641.911C624.908 638.806 625 632.703 625 626L625 599L647 599L647 590L625 590L625 571C619.334 571.717 613.723 572.882 608 573M489 628C481.982 629.358 474.249 636.163 478.18 643.996C480.212 648.046 484.136 650.078 488 652C484.081 653.746 479.339 654.838 476.434 658.214C469.777 665.947 476.283 675.366 484 678.525C497.466 684.037 515.98 683.622 529 677.005C538.335 672.26 544.521 662.588 541.196 652C536.568 637.262 515.883 640.005 504 640C500.493 639.998 490.749 640.291 492.497 634.055C494.144 628.179 505.541 631.223 510 630.911C527.718 629.669 541.706 615.041 531 598L545 598L545 589C537.044 589 528.937 589.454 521 588.911C510.955 588.223 500.572 586.592 491 590.905C481.574 595.153 474.342 606.774 479.457 617C481.656 621.397 485.848 624.355 489 628M736 591C736.553 597.955 744.06 597.739 745.682 604.015C749.164 617.49 740.974 634.727 749.853 646.906C758.366 658.582 781.032 655.524 787 643C788.081 646.657 788 650.199 788 654C797.02 653.288 805.946 651.389 815 651C814.482 644.336 807.857 644.74 806.318 638.957C804.956 633.837 806 627.275 806 622L806 588C796.694 588.4 787.24 589.832 778 591C778.513 597.64 784.221 596.835 786.397 602.108C787.487 604.751 787 608.206 787 611C787 618.226 789.054 629.188 786.397 635.956C782.92 644.81 768.877 643.088 765.742 634.996C764.039 630.599 765 624.637 765 620L765 588C755.304 588.416 745.672 590.237 736 591M1022 588.439C997.983 592.221 985.136 621.683 999.638 642C1007.4 652.876 1021.22 656.574 1034 654.561C1041.81 653.331 1049.5 650.035 1054.79 643.985C1065.36 631.877 1065.48 610.132 1054.67 598.093C1046.82 589.348 1033.21 586.673 1022 588.439M551 591C551.592 598.446 558.884 596.462 561.397 602.214C562.848 605.535 562 610.453 562 614C562 622.237 562.668 630.791 561.941 638.995C561.247 646.83 551.632 645.049 551 653L592 653C591.394 645.379 583.058 647.369 581.318 640.945C579.937 635.85 581 629.256 581 624L581 590L551 591M946 591C946.592 598.446 953.884 596.462 956.397 602.214C957.848 605.535 957 610.453 957 614C957 622.237 957.668 630.791 956.941 638.995C956.247 646.83 946.632 645.049 946 653L987 653C986.394 645.379 978.058 647.369 976.318 640.945C974.937 635.85 976 629.256 976 624L976 590L946 591z"/>
<path style="fill:#010101; stroke:none;" d="M505.004 595.667C492.312 598.236 494.721 627.385 508.985 623.562C520.279 620.536 518.556 592.923 505.004 595.667M1023.02 597.742C1018.79 599.406 1016.49 603.862 1015.3 608C1012.71 617.059 1013.06 629.352 1016.97 637.999C1019.75 644.142 1026.37 647.823 1033 645.258C1045.6 640.381 1044.04 616.006 1039.91 606.001C1037.09 599.192 1030.45 594.814 1023.02 597.742M856 599.537C852.896 600.255 849.82 601.946 848.603 605.044C846.929 609.308 848 615.486 848 620C848 629.955 844.132 645.452 858 645.956C859.645 646.016 861.401 646.004 863 645.566C867.965 644.208 871.097 639.683 872.556 635C876.231 623.204 874.935 595.158 856 599.537z"/>
<path style="fill:#fefefe; stroke:none;" d="M445.001 631.654C430.686 636.09 437.775 657.755 451.999 653.346C466.297 648.915 459.112 627.28 445.001 631.654M917.001 631.654C902.686 636.09 909.776 657.755 923.999 653.346C938.297 648.915 931.112 627.28 917.001 631.654z"/>
<path style="fill:#010101; stroke:none;" d="M495.228 655.028C489.777 658.361 491.922 667.06 496.109 670.351C502.085 675.05 513.623 675.613 519.956 671.272C525.163 667.704 527.278 659.052 520.891 655.457C515.789 652.584 507.653 653.962 502 654.001C499.781 654.016 497.206 653.818 495.228 655.028z"/>
</svg>
