<?xml version="1.0" standalone="yes"?>
<svg xmlns="http://www.w3.org/2000/svg" width="1600" height="900">
<path style="fill:#010101; stroke:none;" d="M0 0L0 900L1600 900L1600 0L0 0z"/>
<path style="fill:#fefefe; stroke:none;" d="M407 184.439C401.023 185.38 395.297 187.396 390 190.313C371.045 200.754 366.133 226.307 380.518 242.83C391.571 255.527 409.539 261.366 426 258.675C451.971 254.43 476.677 222.039 456.671 198.004C445.381 184.442 423.503 181.841 407 184.439M760 299L760 329L799 329L799 458C799 476.999 795.584 499.409 808.758 514.985C816.831 524.532 828.325 530.156 840 533.999C866.712 542.791 896.69 540.097 923 531.333C930.829 528.726 938.533 525.747 946 522.219C948.896 520.851 953.17 519.434 954.972 516.61C958.115 511.683 956 500.713 956 495C931.964 495.016 909.06 503.74 887 489.452C868.346 477.37 870 459.652 870 440L870 329L954 329C954.001 316.992 955.486 304.982 956 293L870 293L870 222C854.421 222.129 838.407 226.051 823 228.271C819.086 228.835 809.668 228.473 807.028 231.742C805.415 233.739 805.894 237.582 805.576 240C804.488 248.256 804.637 256.695 803.83 265C803.406 269.365 802.844 273.943 801.12 278C794.263 294.144 775.871 297.746 760 299M744 473C729.485 473 719.164 482.421 706 487.691C682.829 496.965 654.551 497.098 633 483.535C596.187 460.369 596.615 404.461 605.12 367C608.312 352.937 613.824 331.704 629 326.133C639.753 322.187 653.111 327.205 663 331.421C675.266 336.651 686.732 342.917 698 350.053C704.212 353.988 710.878 360.439 718 362.49C722.893 363.899 728.942 363 734 363C734 349.777 734.186 336.195 735.089 323C735.433 317.986 737.901 309.982 734.972 305.39C732.104 300.895 723.697 298.873 719 297C701.637 290.076 683.621 287 665 287C640.594 287 616.503 292.227 595 304.17C554.266 326.794 527.079 370.094 527.079 417C527.079 448.839 536.434 483.583 559.09 506.961C568.815 516.995 580.523 524.497 593 530.627C600.95 534.532 610.312 536.836 619 538.385C652.793 544.41 686.297 537.336 716 520.861C722.618 517.19 728.773 513.29 735 508.975C737.62 507.16 741.235 505.248 742.972 502.485C744.62 499.864 744 495.948 744 493L744 473M1036 436C1033.51 440.628 1028.72 441.387 1024 443.003C1019.06 444.691 1014.34 446.83 1010 449.749C988.855 463.967 980.003 494.391 1000.04 513.907C1005.27 518.993 1012.4 523.59 1019 526.677C1023.73 528.892 1029.35 529.14 1032 534C1015.63 537.378 997.902 542.488 986.093 555.015C973.475 568.4 970.688 591.159 980.468 607C986.65 617.013 996.754 624.292 1007 629.68C1023.64 638.431 1042.59 641.883 1061 644.282C1105 650.013 1150.25 644.772 1190 624.752C1224.41 607.421 1248.39 565.794 1231.21 528C1211.08 483.733 1157.03 486 1116 486L1088 486C1078.92 486 1067.81 487.721 1059 485.387C1048.81 482.687 1041.52 473.599 1044.29 463C1045.71 457.601 1049.8 450.107 1055.58 448.402C1060.3 447.009 1068.08 450.396 1073 450.95C1086.49 452.47 1101.46 453.312 1115 451.715C1155 446.995 1201.65 430.955 1208.27 385C1209.35 377.481 1209.73 369.567 1208.82 362C1207.84 353.935 1204.42 345.775 1200.06 339C1197.41 334.891 1194 331.484 1192 327C1205.73 327 1219.32 328.65 1233 328.985C1236.43 329.069 1244.57 330.435 1246.97 327.397C1248.91 324.948 1248 319.91 1248 317C1248 308.946 1248.93 301.011 1249 293L1190 293C1179.78 293 1169.17 293.815 1159 292.83C1145.94 291.567 1133.09 288.415 1120 287.17C1092.51 284.554 1060.57 287.541 1036 300.9C1000.01 320.473 977.745 365.788 999.876 404C1003.78 410.737 1009.2 417.267 1015.04 422.41C1021.15 427.792 1028.31 433.185 1036 436M343 302L343 322C352.56 324.266 361.923 328.865 371 332.604C375.519 334.465 381.051 336.764 383.721 341.104C389.08 349.813 386 366.127 386 376L386 462L386 485C385.993 489.636 386.094 494.934 383.272 498.895C380.119 503.321 373.922 505.312 369 506.997C360.35 509.958 351.82 513.592 343 516L343 535L499 535L499 516C489.785 513.867 480.91 509.81 472 506.656C467.435 505.04 461.605 503.072 458.742 498.895C455.693 494.445 457 487.121 457 482L457 444L457 296C418.929 296 381.066 302 343 302z"/>
<path style="fill:#010101; stroke:none;" d="M1092 315.519C1076.84 318.807 1069.25 333.998 1066.75 348C1063.52 366.071 1063.42 386.631 1070.06 404C1074.89 416.597 1083.92 425.926 1098 425.999C1101.64 426.018 1105.42 426.248 1109 425.482C1123.74 422.333 1131.99 408.822 1134.99 395C1136.11 389.803 1136.93 384.318 1137 379C1137.28 355.256 1135.75 315.446 1103 315.004C1099.37 314.955 1095.57 314.745 1092 315.519M1057.19 540.028C1053.09 542.368 1050.45 548.815 1048.76 553C1042.5 568.439 1044.81 588.527 1058 599.674C1073.22 612.533 1092.86 615 1112 615C1125.25 615 1139.46 613.068 1151 606.073C1170.93 593.997 1182.15 561.569 1159 546.248C1151.53 541.308 1143.57 540.65 1135 539.83C1117.8 538.187 1100.29 539 1083 539L1066 539C1063.17 539.001 1059.75 538.565 1057.19 540.028z"/>
<path style="fill:#fefefe; stroke:none;" d="M615.001 665.533C601.035 668.923 608.283 687.352 621 684.602C627.26 683.248 633.874 675.472 629.257 669.225C626.205 665.094 619.645 664.406 615.001 665.533M1010 665.533C996.035 668.923 1003.28 687.352 1016 684.602C1022.26 683.248 1028.87 675.472 1024.26 669.225C1021.2 665.094 1014.65 664.406 1010 665.533M700 667C700.553 674.162 708.036 674.528 709.682 681.004C711.37 687.643 710 696.165 710 703C710 716.171 711.103 729.879 709.941 742.995C709.294 750.302 700.59 749.574 700 757L736 757C735.534 750.963 730.667 750.72 728.603 745.815C727.396 742.945 728 739.043 728 736C728 728.67 726.013 717.909 728.603 711.005C731.954 702.074 745.347 701.886 749.543 710.015C753.538 717.754 751.058 731.457 750.999 740C750.984 742.249 751.156 744.769 749.972 746.787C747.385 751.199 743.447 751.209 743 757L779 757C778.469 750.32 771.153 750.254 770.148 743.985C768.19 731.771 772.815 717.947 769.362 706C765.725 693.416 750.355 688.995 739 693.613C734.633 695.39 731.309 698.762 728 702L728 666L700 667M867 667C867.587 674.611 876.287 674.591 876.941 682.004C878.417 698.725 877 716.209 877 733C877 737.937 875.053 748.196 878.028 752.351C880.883 756.34 889.536 757.132 894 757.916C911.197 760.936 930.08 757.355 938.204 740C946.834 721.563 940.334 692 916 692.029C912.893 692.033 909.883 692.592 907 693.765C902.603 695.553 899.338 698.734 896 702L896 666L867 667M656 677C655.994 686.056 654.74 694.412 644 695L644 703L654 703L654 736C654 741.518 653.335 747.452 657.279 751.892C664.162 759.643 677.078 758.807 686 755.971C691.838 754.116 695.783 752.541 696 746C690.763 746.225 685.044 748.116 680.004 745.911C672.908 742.806 673 736.703 673 730L673 703L695 703L695 694L673 694L673 675C667.334 675.717 661.723 676.882 656 677M537 732C529.982 733.358 522.249 740.163 526.18 747.996C528.212 752.046 532.136 754.078 536 756C532.081 757.746 527.339 758.838 524.434 762.214C517.777 769.947 524.283 779.366 532 782.525C545.466 788.037 563.98 787.622 577 781.005C586.335 776.26 592.521 766.588 589.196 756C584.568 741.262 563.883 744.005 552 744C548.493 743.998 538.749 744.291 540.497 738.055C542.144 732.179 553.541 735.223 558 734.911C575.718 733.669 589.706 719.041 579 702L593 702L593 693C585.044 693 576.937 693.454 569 692.911C558.955 692.223 548.572 690.592 539 694.905C529.574 699.153 522.342 710.774 527.457 721C529.656 725.397 533.848 728.355 537 732M784 695C784.553 701.955 792.06 701.739 793.682 708.015C797.164 721.49 788.974 738.727 797.853 750.906C806.366 762.582 829.032 759.524 835 747C836.081 750.657 836 754.199 836 758C845.02 757.288 853.945 755.389 863 755C862.482 748.336 855.857 748.74 854.318 742.957C852.956 737.837 854 731.275 854 726L854 692C844.694 692.4 835.24 693.832 826 695C826.513 701.64 832.221 700.835 834.397 706.108C835.487 708.751 835 712.206 835 715C835 722.226 837.054 733.188 834.397 739.956C830.92 748.81 816.877 747.088 813.742 738.996C812.039 734.599 813 728.637 813 724L813 692C803.304 692.416 793.671 694.237 784 695M1070 692.439C1045.98 696.221 1033.14 725.682 1047.64 746C1055.4 756.876 1069.22 760.574 1082 758.561C1089.81 757.331 1097.5 754.035 1102.79 747.985C1113.36 735.877 1113.48 714.132 1102.67 702.093C1094.82 693.348 1081.21 690.673 1070 692.439M599 695C599.592 702.446 606.884 700.462 609.397 706.214C610.848 709.535 610 714.453 610 718C610 726.237 610.668 734.791 609.941 742.995C609.247 750.83 599.632 749.049 599 757L640 757C639.394 749.379 631.058 751.369 629.318 744.945C627.937 739.85 629 733.256 629 728L629 694L599 695M994 695C994.592 702.446 1001.88 700.462 1004.4 706.214C1005.85 709.535 1005 714.453 1005 718C1005 726.237 1005.67 734.791 1004.94 742.995C1004.25 750.83 994.632 749.049 994 757L1035 757C1034.39 749.379 1026.06 751.369 1024.32 744.945C1022.94 739.85 1024 733.256 1024 728L1024 694L994 695z"/>
<path style="fill:#010101; stroke:none;" d="M553.004 699.667C540.312 702.236 542.721 731.385 556.985 727.562C568.279 724.536 566.556 696.924 553.004 699.667M1071.02 701.742C1066.79 703.406 1064.49 707.862 1063.3 712C1060.71 721.059 1061.06 733.352 1064.97 741.999C1067.75 748.142 1074.37 751.823 1081 749.258C1093.6 744.381 1092.04 720.006 1087.91 710.001C1085.09 703.192 1078.45 698.814 1071.02 701.742M904 703.537C900.896 704.255 897.82 705.946 896.603 709.044C894.929 713.308 896 719.486 896 724C896 733.955 892.132 749.452 906 749.956C907.645 750.016 909.401 750.004 911 749.566C915.965 748.208 919.097 743.683 920.556 739C924.231 727.204 922.935 699.158 904 703.537z"/>
<path style="fill:#fefefe; stroke:none;" d="M493.001 735.654C478.686 740.09 485.776 761.755 499.999 757.346C514.297 752.915 507.112 731.28 493.001 735.654M965.001 735.654C950.686 740.09 957.775 761.755 971.999 757.346C986.297 752.915 979.112 731.28 965.001 735.654z"/>
<path style="fill:#010101; stroke:none;" d="M543.228 759.028C537.777 762.361 539.922 771.06 544.109 774.351C550.085 779.05 561.623 779.613 567.956 775.272C573.163 771.704 575.278 763.052 568.891 759.457C563.789 756.584 555.653 757.962 550 758.001C547.781 758.016 545.206 757.818 543.228 759.028z"/>
</svg>
