<?xml version="1.0" standalone="yes"?>
<svg xmlns="http://www.w3.org/2000/svg" width="1400" height="770">
<path style="fill:#010101; stroke:none;" d="M0 0L0 770L1400 770L1400 0L0 0z"/>
<path style="fill:#fefefe; stroke:none;" d="M309 80.439C303.023 81.3799 297.297 83.3959 292 86.3133C273.045 96.7537 268.133 122.307 282.518 138.83C293.571 151.527 311.539 157.366 328 154.675C353.971 150.43 378.677 118.039 358.671 94.0038C347.381 80.4418 325.503 77.8413 309 80.439M662 195L662 225L701 225L701 354C701 372.999 697.584 395.408 710.758 410.985C718.831 420.532 730.325 426.156 742 429.999C768.712 438.791 798.69 436.097 825 427.333C832.829 424.726 840.533 421.747 848 418.219C850.896 416.851 855.17 415.434 856.972 412.61C860.115 407.683 858 396.713 858 391C833.964 391.016 811.06 399.74 789 385.452C770.346 373.37 772 355.652 772 336L772 225L856 225C856.001 212.992 857.486 200.982 858 189L772 189L772 118C756.421 118.129 740.407 122.051 725 124.271C721.086 124.835 711.668 124.473 709.028 127.742C707.415 129.739 707.894 133.582 707.576 136C706.488 144.256 706.637 152.695 705.83 161C705.406 165.365 704.844 169.943 703.12 174C696.263 190.144 677.87 193.746 662 195M646 369C631.485 369 621.165 378.421 608 383.691C584.829 392.965 556.551 393.098 535 379.535C498.187 356.369 498.614 300.46 507.12 263C510.312 248.937 515.824 227.704 531 222.133C541.753 218.187 555.111 223.205 565 227.421C577.266 232.651 588.732 238.917 600 246.053C606.212 249.988 612.878 256.439 620 258.49C624.893 259.899 630.942 259 636 259C636 245.777 636.186 232.195 637.089 219C637.433 213.986 639.901 205.982 636.972 201.39C634.104 196.895 625.697 194.873 621 193C603.637 186.076 585.621 183 567 183C542.594 183 518.503 188.227 497 200.17C456.266 222.794 429.079 266.094 429.079 313C429.079 344.839 438.434 379.583 461.09 402.961C470.815 412.995 482.523 420.497 495 426.627C502.95 430.532 512.312 432.836 521 434.385C554.793 440.41 588.297 433.336 618 416.861C624.618 413.19 630.773 409.29 637 404.975C639.62 403.16 643.235 401.248 644.972 398.485C646.62 395.864 646 391.948 646 389L646 369M938 332C935.51 336.628 930.725 337.387 926 339.003C921.063 340.691 916.341 342.83 912 345.749C890.855 359.967 882.003 390.391 902.043 409.907C907.266 414.993 914.402 419.59 921 422.677C925.735 424.892 931.346 425.14 934 430C917.633 433.378 899.902 438.488 888.093 451.015C875.475 464.4 872.688 487.159 882.468 503C888.65 513.013 898.754 520.292 909 525.68C925.64 534.431 944.589 537.883 963 540.282C1007 546.013 1052.25 540.772 1092 520.752C1126.41 503.421 1150.39 461.794 1133.21 424C1112.93 379.405 1058.26 382 1017 382L990 382C980.92 382 969.808 383.721 961 381.387C950.806 378.687 943.523 369.599 946.294 359C947.706 353.601 951.796 346.107 957.576 344.402C962.298 343.009 970.082 346.396 975 346.95C988.491 348.47 1003.46 349.312 1017 347.715C1057 342.995 1103.65 326.955 1110.27 281C1111.35 273.481 1111.73 265.567 1110.82 258C1109.84 249.935 1106.42 241.775 1102.06 235C1099.41 230.891 1096 227.484 1094 223C1107.73 223 1121.32 224.65 1135 224.985C1138.43 225.069 1146.57 226.435 1148.97 223.397C1150.91 220.948 1150 215.91 1150 213C1150 204.946 1150.93 197.011 1151 189L1092 189C1081.78 189 1071.17 189.815 1061 188.83C1047.94 187.567 1035.09 184.415 1022 183.17C994.513 180.554 962.567 183.541 938 196.9C902.007 216.473 879.745 261.788 901.876 300C905.777 306.737 911.203 313.267 917.039 318.41C923.147 323.792 930.312 329.185 938 332M245 198L245 218C254.56 220.266 263.923 224.865 273 228.604C277.519 230.465 283.051 232.764 285.721 237.104C291.08 245.813 288 262.127 288 272L288 358L288 381C287.993 385.636 288.094 390.934 285.272 394.895C282.119 399.321 275.922 401.312 271 402.997C262.35 405.958 253.82 409.592 245 412L245 431L401 431L401 412C391.785 409.867 382.91 405.81 374 402.656C369.435 401.04 363.605 399.072 360.742 394.895C357.693 390.445 359 383.121 359 378L359 340L359 192C320.929 192 283.066 198 245 198z"/>
<path style="fill:#010101; stroke:none;" d="M994 211.519C978.842 214.807 971.251 229.998 968.751 244C965.524 262.071 965.415 282.631 972.065 300C976.887 312.597 985.92 321.926 1000 321.999C1003.64 322.018 1007.42 322.248 1011 321.482C1025.74 318.333 1033.99 304.822 1036.99 291C1038.11 285.803 1038.93 280.318 1039 275C1039.28 251.256 1037.75 211.446 1005 211.004C1001.37 210.955 997.567 210.745 994 211.519M959.185 436.028C955.089 438.368 952.452 444.815 950.757 449C944.503 464.439 946.809 484.527 960.004 495.674C975.225 508.533 994.864 511 1014 511C1027.25 511 1041.46 509.068 1053 502.073C1072.93 489.997 1084.15 457.569 1061 442.248C1053.53 437.308 1045.57 436.65 1037 435.83C1019.8 434.187 1002.29 435 985 435L968 435C965.171 435.001 961.745 434.565 959.185 436.028z"/>
<path style="fill:#fefefe; stroke:none;" d="M517.001 561.533C503.035 564.923 510.283 583.352 523 580.602C529.26 579.248 535.874 571.472 531.257 565.225C528.205 561.094 521.645 560.406 517.001 561.533M912.001 561.533C898.035 564.923 905.283 583.352 918 580.602C924.26 579.248 930.874 571.472 926.257 565.225C923.205 561.094 916.645 560.406 912.001 561.533M602 563C602.553 570.162 610.036 570.528 611.682 577.004C613.37 583.643 612 592.165 612 599C612 612.171 613.103 625.879 611.941 638.995C611.294 646.302 602.59 645.574 602 653L638 653C637.534 646.963 632.667 646.72 630.603 641.815C629.396 638.945 630 635.043 630 632C630 624.67 628.013 613.909 630.603 607.005C633.954 598.074 647.347 597.886 651.543 606.015C655.538 613.754 653.058 627.457 652.999 636C652.984 638.249 653.156 640.769 651.972 642.787C649.385 647.199 645.447 647.209 645 653L681 653C680.469 646.32 673.153 646.254 672.148 639.985C670.19 627.771 674.815 613.947 671.362 602C667.725 589.416 652.355 584.995 641 589.613C636.633 591.39 633.309 594.762 630 598L630 562L602 563M769 563C769.587 570.611 778.287 570.591 778.941 578.004C780.417 594.725 779 612.209 779 629C779 633.937 777.053 644.196 780.028 648.351C782.883 652.34 791.536 653.132 796 653.916C813.197 656.936 832.08 653.355 840.204 636C848.834 617.563 842.334 588 818 588.029C814.893 588.033 811.883 588.592 809 589.765C804.603 591.553 801.338 594.734 798 598L798 562L769 563M558 573C557.994 582.056 556.74 590.412 546 591L546 599L556 599L556 632C556 637.518 555.335 643.452 559.279 647.892C566.162 655.643 579.078 654.807 588 651.971C593.838 650.116 597.783 648.541 598 642C592.763 642.225 587.044 644.116 582.004 641.911C574.908 638.806 575 632.703 575 626L575 599L597 599L597 590L575 590L575 571C569.334 571.717 563.723 572.882 558 573M439 628C431.982 629.358 424.249 636.163 428.18 643.996C430.212 648.046 434.136 650.078 438 652C434.081 653.746 429.339 654.838 426.434 658.214C419.777 665.947 426.283 675.366 434 678.525C447.466 684.037 465.98 683.622 479 677.005C488.335 672.26 494.521 662.588 491.196 652C486.567 637.262 465.883 640.005 454 640C450.493 639.998 440.749 640.291 442.497 634.055C444.144 628.179 455.541 631.223 460 630.911C477.718 629.669 491.706 615.041 481 598L495 598L495 589C487.044 589 478.937 589.454 471 588.911C460.955 588.223 450.572 586.592 441 590.905C431.574 595.153 424.342 606.774 429.457 617C431.656 621.398 435.848 624.355 439 628M686 591C686.553 597.955 694.06 597.739 695.682 604.015C699.164 617.49 690.974 634.727 699.853 646.906C708.366 658.582 731.032 655.524 737 643C738.081 646.657 738 650.199 738 654C747.02 653.288 755.945 651.389 765 651C764.482 644.336 757.857 644.74 756.318 638.957C754.956 633.837 756 627.275 756 622L756 588C746.694 588.4 737.24 589.832 728 591C728.513 597.64 734.221 596.835 736.397 602.108C737.487 604.751 737 608.206 737 611C737 618.226 739.054 629.188 736.397 635.956C732.92 644.81 718.877 643.088 715.742 634.996C714.039 630.599 715 624.637 715 620L715 588C705.304 588.416 695.671 590.237 686 591M972 588.439C947.983 592.221 935.136 621.683 949.638 642C957.401 652.876 971.219 656.574 984 654.561C991.813 653.331 999.503 650.035 1004.79 643.985C1015.36 631.877 1015.48 610.132 1004.67 598.093C996.818 589.348 983.213 586.673 972 588.439M501 591C501.592 598.446 508.884 596.462 511.397 602.214C512.848 605.535 512 610.453 512 614C512 622.237 512.668 630.791 511.941 638.995C511.247 646.83 501.632 645.049 501 653L542 653C541.394 645.379 533.058 647.369 531.318 640.945C529.937 635.85 531 629.256 531 624L531 590L501 591M896 591C896.592 598.446 903.884 596.462 906.397 602.214C907.848 605.535 907 610.453 907 614C907 622.237 907.668 630.791 906.941 638.995C906.247 646.83 896.632 645.049 896 653L937 653C936.394 645.379 928.058 647.369 926.318 640.945C924.937 635.85 926 629.256 926 624L926 590L896 591z"/>
<path style="fill:#010101; stroke:none;" d="M455.004 595.667C442.312 598.236 444.722 627.385 458.985 623.562C470.279 620.536 468.556 592.924 455.004 595.667M973.015 597.742C968.788 599.406 966.486 603.862 965.301 608C962.707 617.059 963.056 629.352 966.97 637.999C969.75 644.142 976.365 647.823 982.996 645.258C995.603 640.381 994.036 616.006 989.906 606.001C987.095 599.192 980.454 594.814 973.015 597.742M806 599.537C802.896 600.255 799.82 601.946 798.603 605.044C796.929 609.308 798 615.486 798 620C798 629.955 794.132 645.452 808 645.956C809.645 646.016 811.401 646.004 813 645.566C817.965 644.208 821.097 639.683 822.556 635C826.231 623.204 824.935 595.158 806 599.537z"/>
<path style="fill:#fefefe; stroke:none;" d="M395.001 631.654C380.686 636.09 387.775 657.755 401.999 653.346C416.297 648.915 409.112 627.28 395.001 631.654M867.001 631.654C852.686 636.09 859.775 657.755 873.999 653.346C888.297 648.915 881.112 627.28 867.001 631.654z"/>
<path style="fill:#010101; stroke:none;" d="M445.228 655.028C439.777 658.361 441.922 667.06 446.109 670.351C452.085 675.05 463.623 675.613 469.956 671.272C475.163 667.704 477.278 659.052 470.891 655.457C465.789 652.584 457.653 653.962 452 654.001C449.781 654.016 447.206 653.818 445.228 655.028z"/>
</svg>
